<?xml version="1.0" encoding="UTF-8" standalone="no"?>
<!-- Created with Inkscape (http://www.inkscape.org/) -->

<svg
   xmlns:dc="http://purl.org/dc/elements/1.1/"
   xmlns:cc="http://creativecommons.org/ns#"
   xmlns:rdf="http://www.w3.org/1999/02/22-rdf-syntax-ns#"
   xmlns:svg="http://www.w3.org/2000/svg"
   xmlns="http://www.w3.org/2000/svg"
   xmlns:sodipodi="http://sodipodi.sourceforge.net/DTD/sodipodi-0.dtd"
   xmlns:inkscape="http://www.inkscape.org/namespaces/inkscape"
   width="50mm"
   height="50mm"
   viewBox="0 0 49.999999 49.999999"
   version="1.1"
   id="svg8"
   inkscape:version="0.92.2 5c3e80d, 2017-08-06"
   sodipodi:docname="n2.svg"
   inkscape:export-filename="/home/nikhil/inkscape/n2.png"
   inkscape:export-xdpi="200"
   inkscape:export-ydpi="200">
  <defs
     id="defs2">
    <inkscape:perspective
       sodipodi:type="inkscape:persp3d"
       inkscape:vp_x="0.75595235 : 151.5238 : 1"
       inkscape:vp_y="0 : 999.99994 : 0"
       inkscape:vp_z="210 : 148.49999 : 1"
       inkscape:persp3d-origin="105 : 98.999994 : 1"
       id="perspective210" />
  </defs>
  <sodipodi:namedview
     id="base"
     pagecolor="#ffffff"
     bordercolor="#666666"
     borderopacity="1.0"
     inkscape:pageopacity="0.0"
     inkscape:pageshadow="2"
     inkscape:zoom="1.28"
     inkscape:cx="150.43393"
     inkscape:cy="98.148745"
     inkscape:document-units="mm"
     inkscape:current-layer="layer1"
     showgrid="false"
     inkscape:window-width="1332"
     inkscape:window-height="709"
     inkscape:window-x="13"
     inkscape:window-y="38"
     inkscape:window-maximized="0"
     inkscape:pagecheckerboard="true" />
  <metadata
     id="metadata5">
    <rdf:RDF>
      <cc:Work
         rdf:about="">
        <dc:format>image/svg+xml</dc:format>
        <dc:type
           rdf:resource="http://purl.org/dc/dcmitype/StillImage" />
        <dc:title></dc:title>
      </cc:Work>
    </rdf:RDF>
  </metadata>
  <g
     inkscape:label="Layer 1"
     inkscape:groupmode="layer"
     id="layer1"
     transform="translate(-49.802792,-185.8579)">
    <flowRoot
       xml:space="preserve"
       id="flowRoot10"
       style="font-style:normal;font-variant:normal;font-weight:normal;font-stretch:normal;font-size:192px;line-height:1.25;font-family:'Monaco for Powerline';-inkscape-font-specification:'Monaco for Powerline';letter-spacing:0px;word-spacing:0px;fill:#000000;fill-opacity:1;stroke:none"
       transform="matrix(0.10892401,0,0,0.10892401,33.147182,136.67068)"><flowRegion
         id="flowRegion12"
         style="font-style:normal;font-variant:normal;font-weight:normal;font-stretch:normal;font-family:'Monaco for Powerline';-inkscape-font-specification:'Monaco for Powerline'"><rect
           id="rect14"
           width="585.71429"
           height="334.28571"
           x="102.85714"
           y="408.23398"
           style="font-style:normal;font-variant:normal;font-weight:normal;font-stretch:normal;font-family:'Monaco for Powerline';-inkscape-font-specification:'Monaco for Powerline'" /></flowRegion><flowPara
         id="flowPara16" /></flowRoot>    <text
       xml:space="preserve"
       style="font-style:normal;font-variant:normal;font-weight:bold;font-stretch:normal;font-size:20.91341019px;line-height:1.25;font-family:'Fira Code';-inkscape-font-specification:'Fira Code Bold';letter-spacing:0px;word-spacing:0px;fill:#000000;fill-opacity:1;stroke:none;stroke-width:0.10892399"
       x="63.957104"
       y="196.69772"
       id="text20"><tspan
         sodipodi:role="line"
         x="63.957104"
         y="215.60693"
         style="font-style:normal;font-variant:normal;font-weight:bold;font-stretch:normal;font-family:'Fira Code';-inkscape-font-specification:'Fira Code Bold';stroke-width:0.10892399"
         id="tspan32" /></text>
    <path
       id="text40-7"
       style="font-style:normal;font-variant:normal;font-weight:normal;font-stretch:normal;font-size:105.83333588px;line-height:1.25;font-family:Monaco;-inkscape-font-specification:Monaco;letter-spacing:0px;word-spacing:0px;fill:#000000;fill-opacity:1;stroke:none;stroke-width:0.10892399"
       d="m 65.201962,187.94673 -11.5519,23.10381 h 3.63789 l 7.93528,-15.78548 7.85019,15.78548 h 3.68044 z"
       inkscape:connector-curvature="0" />
    <path
       id="text40-7-1"
       style="font-style:normal;font-variant:normal;font-weight:normal;font-stretch:normal;font-size:105.83333588px;line-height:1.25;font-family:Monaco;-inkscape-font-specification:Monaco;letter-spacing:0px;word-spacing:0px;fill:#000000;fill-opacity:1;stroke:none;stroke-width:0.10892399"
       d="m 72.851742,210.66526 2.1487,4.29739 c 0.0699,0.048 0.12953,0.13779 0.16572,0.29062 0.0122,0.0291 0.0224,0.0567 0.0291,0.0823 0.0451,0.0599 0.0583,0.10113 0.0696,0.15615 l 9.13876,18.27732 11.5519,-23.10381 h -3.63789 l -7.93528,15.78548 -7.85019,-15.78548 z"
       inkscape:connector-curvature="0" />
    <path
       id="text40-1"
       style="font-style:normal;font-variant:normal;font-weight:normal;font-stretch:normal;font-size:105.83333588px;line-height:1.25;font-family:Monaco;-inkscape-font-specification:Monaco;letter-spacing:0px;word-spacing:0px;fill:#000000;fill-opacity:1;stroke:none;stroke-width:0.10892399"
       d="m 65.201962,196.25602 -7.40109,14.80239 h 0.43421 0.86245 0.78311 0.76438 0.62929 0.18679 l 3.76213,-7.48406 3.77596,7.59298 h 0.43144 0.66567 c 0.0272,0 0.0741,-0.0204 0.0964,-0.0153 0.007,0.002 0.012,0.006 0.0123,0.0153 0,0.005 0,0.01 0.001,0.0153 0.001,-0.006 0.001,-0.009 0.001,-0.0153 0,0 0.1953,0 0.31337,0 h 0.58015 c 0.12913,0 0.22298,-0.002 0.29422,0 0.0165,0.001 0.0336,0.001 0.0474,0.002 0.0848,-0.007 0.20461,-0.003 0.37613,-0.003 h 0.324 c 0.21345,0 0.39794,0.0291 0.55505,0.0785 z m 8.6618,17.58952 c 0.006,0.0264 0.0118,0.0527 0.0149,0.0794 0.009,0.0176 0.0174,0.0347 0.027,0.0536 0.0107,-0.004 0.0206,-0.008 0.0317,-0.0115 -0.0234,-0.0414 -0.0478,-0.0821 -0.0736,-0.12148 z m 0.0149,0.0794 c -0.008,-0.0157 -0.0187,-0.0363 -0.0236,-0.047 -0.005,-0.005 -0.0142,-0.0142 -0.0215,-0.0215 -0.005,0.005 -0.005,0.006 -0.01,0.0106 0.0189,0.0361 0.0375,0.0724 0.0577,0.10765 -0.001,-0.0166 -0.001,-0.0333 -0.003,-0.0498 z m 0.003,0.0498 c 0,0.004 0,0.008 10e-4,0.0121 0.002,-10e-4 0.004,-0.001 0.006,-0.002 -0.002,-0.004 -0.005,-0.007 -0.007,-0.01 z m -1.2705,0.83139 c 0,-0.001 0.007,0.0221 0.009,0.0287 0.001,0.001 0.002,0.002 0.003,0.003 -0.003,-0.008 -0.0123,-0.0316 -0.0125,-0.0321 z m -14.52603,0.60144 c -1e-4,0.0319 -0.001,0.0562 -0.001,0.0883 0.0615,-0.0289 0.11997,-0.0566 0.18807,-0.0883 z m 17.51443,1.72363 c -0.004,0.001 -0.007,0.003 -0.0106,0.005 0.0187,0.0206 0.0348,0.0407 0.0421,0.0589 0.0134,0.003 0.0304,0.008 0.0421,0.0111 0,-0.004 0,-0.006 0,-0.008 l -0.0234,-0.047 c -0.0142,-0.0103 -0.027,-0.0176 -0.0372,-0.0198 -0.005,-10e-4 -0.009,-10e-4 -0.013,0 z m 0.0736,0.0749 c 0,0.001 0,0.001 0,0.002 10e-4,0.004 0.01,0.0438 0.0166,0.076 0.008,-0.002 0.0157,-0.004 0.0236,-0.006 l -0.0355,-0.0708 c -0.002,0 -0.003,-0.001 -0.005,-0.001 z m -0.0421,-0.0111 c -0.0202,-0.005 -0.042,-0.0111 -0.0634,-0.0168 0,0 0,0.001 0,0.001 0.0129,0.0279 0.0236,0.0538 0.0317,0.0766 0.006,-0.001 0.012,-0.003 0.0187,-0.007 0.0201,-0.0145 0.0214,-0.0328 0.0132,-0.0532 z m -0.0166,0.10743 c 10e-4,0.002 0.002,0.005 0.002,0.007 0.003,-0.001 0.007,-0.002 0.0102,-0.003 -0.004,-0.001 -0.008,-0.002 -0.0126,-0.004 z m -21.20529,0.53951 -0.0145,0.0291 c 0.008,-0.01 0.007,-0.009 0.0166,-0.0202 -10e-4,-0.003 -10e-4,-0.006 -0.002,-0.009 z m 20.15413,1.48154 c -0.0143,0.004 -0.028,0.007 -0.0417,0.01 -0.003,0.009 -0.006,0.0175 -0.009,0.0266 h 0.0791 c -0.01,-0.0128 -0.0158,-0.0199 -0.0281,-0.0364 z"
       inkscape:connector-curvature="0" />
    <path
       id="text40-7-1-2"
       style="font-style:normal;font-variant:normal;font-weight:normal;font-stretch:normal;font-size:105.83333588px;line-height:1.25;font-family:Monaco;-inkscape-font-specification:Monaco;letter-spacing:0px;word-spacing:0px;fill:#000000;fill-opacity:1;stroke:none;stroke-width:0.10892399"
       d="m 74.184572,203.3831 c -0.001,10e-4 0.003,0.004 0.0109,0.0113 0.0268,0.0225 0.0457,0.0369 0.0672,0.054 0.001,-0.005 0.002,-0.0105 0.004,-0.0157 -0.001,-0.001 -0.001,-0.003 -0.002,-0.004 -0.042,-0.0271 -0.0784,-0.0481 -0.0804,-0.0455 z m 0.0781,0.0653 c -0.008,0.0361 -0.0159,0.0723 -0.0189,0.10913 -0.005,0.0546 0.01,-0.0155 0.0268,-0.10275 -0.002,-0.002 -0.005,-0.004 -0.008,-0.006 z m 0.008,0.006 c 0.002,0.002 0.003,0.002 0.005,0.004 -0.001,-0.004 -0.003,-0.007 -0.004,-0.0108 -10e-4,0.002 -10e-4,0.005 -10e-4,0.007 z m 2.99392,0.27444 c -0.002,-0.001 0,0.003 -10e-4,0.006 0.002,0.006 0.004,0.0111 0.007,0.0166 0.001,0.001 0.002,0.002 0.002,0.003 0.0166,0.003 0.0211,-0.001 -0.009,-0.026 z m -3.40196,0.42995 0.0728,0.14551 c 0.005,-0.001 0.01,-0.002 0.0147,-0.003 -0.0245,-0.0532 -0.0436,-0.10094 -0.0574,-0.14063 -0.01,0 -0.0199,-0.001 -0.03,-0.002 z m 3.58726,1.63875 c 0,0.002 0,0.003 0,0.005 0.0514,0.0571 0.0989,0.12979 0.13381,0.19019 -0.005,-0.0188 -0.009,-0.038 -0.0136,-0.057 -0.0103,-0.0183 -0.02,-0.0376 -0.0323,-0.0528 -0.0359,-0.0303 -0.0635,-0.0583 -0.0879,-0.0855 z m -2.76118,0.0138 0.0906,0.18126 c 10e-4,0 10e-4,0 0.002,0 0.0135,0.001 0.0298,-0.002 0.0466,-0.005 -0.0605,-0.0847 -0.10943,-0.14796 -0.13934,-0.17679 z m 1.66002,1.75917 c 0.008,0.017 0.0155,0.0343 0.0192,0.0489 -0.002,-0.0132 -0.003,-0.0266 -0.006,-0.0398 -0.004,-0.003 -0.009,-0.006 -0.013,-0.009 z m 0.0289,0.11105 c 0,0.006 10e-4,0.0125 10e-4,0.0187 0,-0.006 -10e-4,-0.0125 -10e-4,-0.0187 z m 0.9284,0.85458 c -0.003,0.004 -0.006,0.008 -0.009,0.0117 0.005,0.008 0.01,0.0145 0.0157,0.0185 0.005,0.003 0.007,-0.008 0.0111,-0.0128 -0.006,-0.006 -0.0121,-0.0116 -0.0181,-0.0175 z m -0.0745,0.0962 c 0,0.007 0,0.0135 0,0.0202 0.001,-0.006 0.002,-0.0109 0.003,-0.0164 -0.001,-0.001 -0.001,-0.002 -0.002,-0.003 0,0 -0.001,0 -0.001,-0.001 z m -0.16615,0.0123 c -0.006,0.004 -0.0183,0.0191 -0.0321,0.0389 0.009,0.001 0.0165,0.001 0.0249,0.002 0.003,-0.01 0.007,-0.0178 0.01,-0.0283 0.004,-0.012 0.002,-0.0156 -0.003,-0.0126 z m 1.3707,0.21466 c 0,0.003 0,0.006 0,0.009 0.001,-1e-5 0.001,1e-5 0.002,0 -10e-4,-0.005 -10e-4,-0.0144 -0.002,-0.009 z m -1.92277,0.60121 0.0832,0.16657 c 0.004,0.002 0.008,0.005 0.0123,0.008 -0.007,-0.0426 -0.018,-0.0934 -0.0351,-0.15743 -0.0194,-0.006 -0.0422,-0.0123 -0.0604,-0.0172 z m 0.58101,1.16178 7.37173,14.74368 7.37172,-14.74368 h -0.42335 -0.49122 -0.55505 -0.52675 -0.80821 -0.63843 -0.21721 l -3.73278,7.42535 -3.69256,-7.42535 h -0.30508 -0.65524 -0.47654 -0.48165 -0.3789 -0.44186 -0.3923 -0.21593 -0.23742 z"
       inkscape:connector-curvature="0" />
  </g>
</svg>
